<svg width="269" height="32" viewBox="0 0 269 32" fill="none" xmlns="http://www.w3.org/2000/svg">
<g opacity="0.7">
<path d="M226.91 0L226.016 1.61899L232.89 13.5241L246.083 13.7808L252.458 2.22652L251.172 0H226.91Z" fill="#E84A4A"/>
<path d="M225.326 0L224.424 1.63448L232.08 14.8952L246.893 15.1835L254.05 2.21103L252.773 0H269V2.42756L255.672 2.42756L248.016 15.6883L255.672 28.949L269 28.949V31.8918H253.142L254.425 29.6688L246.769 16.4081H231.457L223.801 29.6688L225.084 31.8918H0V0H225.326Z" fill="#E84A4A"/>
<path d="M251.541 31.8918H226.685L225.402 29.6688L232.257 17.7947L245.968 17.7947L252.824 29.6688L251.541 31.8918Z" fill="#E84A4A"/>
<path d="M269 3.81416V27.5624L256.473 27.5624L249.617 15.6883L256.473 3.81415L269 3.81416Z" fill="#E84A4A"/>
</g>
</svg>
